Coordinates
version=1
nRows=14
nColumns=24
inDegrees=yes

Units are S.I. units (second, meters, Newtons, ...)
Angles are in degrees.

endheader
time	pelvis_tilt	pelvis_list	pelvis_rotation	pelvis_tx	pelvis_ty	pelvis_tz	hip_flexion_r	hip_adduction_r	hip_rotation_r	knee_angle_r	ankle_angle_r	subtalar_angle_r	mtp_angle_r	hip_flexion_l	hip_adduction_l	hip_rotation_l	knee_angle_l	ankle_angle_l	subtalar_angle_l	mtp_angle_l	lumbar_extension	lumbar_bending	lumbar_rotation
      5.94000000	      5.04956619	      2.71721655	      0.24679380	     -0.31863231	      0.87060143	     -0.11210031	    -23.95765771	     -0.40020365	      7.27135841	    -11.70934138	     13.78809286	     -5.26125651	      0.00000000	     17.04538767	      4.87275991	     -3.02869278	     -3.34033473	      3.15044821	     -5.79030775	      0.00000000	    -23.56819077	     -6.16410165	      0.60745135
      5.95000000	      5.35753370	      3.12758148	      0.32666609	     -0.30569726	      0.87019040	     -0.11413481	    -24.59911767	     -0.87940512	      6.39272633	    -12.76149838	     12.97280301	     -4.50535558	      0.00000000	     16.79633556	      5.33603725	     -3.62622023	     -4.71261528	      2.39409484	     -6.78012389	      0.00000000	    -23.58920244	     -6.79516649	      0.53488440
      5.96000000	      5.65015243	      3.59755632	      0.55377969	     -0.29265702	      0.86985865	     -0.11634834	    -25.17549511	     -1.34692862	      5.42316455	    -13.91036395	     11.85372927	     -4.00121457	      0.00000000	     16.54665641	      5.90303813	     -3.66816322	     -6.15543555	      1.37248205	     -8.07658962	      0.00000000	    -23.62392676	     -7.46711797	      0.22702081
      5.97000000	      5.95003276	      4.11895753	      0.87871766	     -0.27957448	      0.86969243	     -0.11881126	    -25.67385600	     -1.84437829	      4.25696585	    -15.19837150	     10.54203240	     -3.39559781	      0.00000000	     16.31718995	      6.57502795	     -3.46942813	     -7.72585303	      0.30530506	     -9.42091787	      0.00000000	    -23.69735042	     -8.13746456	     -0.15753140
      5.98000000	      6.25671012	      4.70455932	      1.25223666	     -0.26652921	      0.86972621	     -0.12134885	    -26.03009738	     -2.39564972	      2.92012863	    -16.72116511	      8.99837962	     -2.80966708	      0.00000000	     16.09715243	      7.34443967	     -3.05091142	     -9.39782894	     -0.63253832	    -10.61858516	      0.00000000	    -23.83538245	     -8.86756561	     -0.66209640
      5.99000000	      6.57659349	      5.33153654	      1.67001953	     -0.25358033	      0.86995519	     -0.12399591	    -26.24027018	     -2.99304469	      1.45975379	    -18.48501531	      7.20642728	     -2.25183675	      0.00000000	     15.87730952	      8.19918664	     -2.43296607	    -11.15877076	     -1.31121354	    -11.65724830	      0.00000000	    -24.04822189	     -9.61220197	     -1.24165713
      6.00000000	      6.90438931	      5.96964743	      2.09695470	     -0.24080030	      0.87037096	     -0.12670437	    -26.27291142	     -3.62938848	     -0.02447852	    -20.51062981	      5.14752839	     -1.77502106	      0.00000000	     15.64157120	      9.10245935	     -1.69284781	    -12.95573620	     -1.64452088	    -12.49885154	      0.00000000	    -24.33703806	    -10.33662423	     -1.85645579
      6.01000000	      7.19288010	      6.61482825	      2.49700060	     -0.22819213	      0.87089406	     -0.12932868	    -26.06645041	     -4.30416118	     -1.36598616	    -22.80355481	      2.80905521	     -1.55655867	      0.00000000	     15.42351544	     10.02270718	     -1.02067595	    -14.74775706	     -1.52767763	    -12.96054386	      0.00000000	    -24.63751351	    -11.07668059	     -2.48927781
      6.02000000	      7.49402454	      7.18534727	      2.79636653	     -0.21577907	      0.87158839	     -0.13196621	    -25.64006393	     -5.00883625	     -2.59183092	    -25.36444633	      0.18513737	     -1.43160437	      0.00000000	     15.09971805	     10.87731306	     -0.39261244	    -16.38744055	     -1.00574604	    -13.30766787	      0.00000000	    -24.96640041	    -11.68642651	     -3.04207564
      6.03000000	      7.79391474	      7.70183397	      3.01236532	     -0.20378693	      0.87237901	     -0.13449714	    -24.96020273	     -5.73071242	     -3.58572613	    -28.21351669	     -2.56327844	     -1.49210846	      0.00000000	     14.70189514	     11.66871798	      0.16701498	    -17.86984813	     -0.19941335	    -13.49318561	      0.00000000	    -25.38641062	    -12.22982758	     -3.52337289
      6.04000000	      8.06579815	      8.16082555	      3.13100892	     -0.19213207	      0.87323950	     -0.13688793	    -24.02235166	     -6.46272781	     -4.30884921	    -31.28206602	     -5.41456028	     -1.77358029	      0.00000000	     14.22109492	     12.37721771	      0.58769333	    -19.11736321	      0.84625964	    -13.50810661	      0.00000000	    -25.82650132	    -12.70491901	     -3.98474885
      6.05000000	      8.28775918	      8.47904430	      3.15154917	     -0.18094307	      0.87414392	     -0.13900621	    -22.78666100	     -7.08773712	     -4.68400042	    -34.52775903	     -8.31678762	     -2.33162145	      0.00000000	     13.71168617	     12.88422690	      0.77000133	    -20.15281215	      2.16598228	    -13.20123989	      0.00000000	    -26.27260639	    -13.04072704	     -4.37354567
      6.06000000	      8.41424270	      8.78610656	      2.96911757	     -0.16999392	      0.87504612	     -0.14078359	    -21.22610530	     -7.78037311	     -4.71231349	    -37.91643888	    -11.04361247	     -3.04143762	      0.00000000	     13.16791083	     13.31664121	      0.69879513	    -20.86566330	      3.45325858	    -12.85643808	      0.00000000	    -26.60000377	    -13.43004689	     -4.65014131
      6.07000000	      8.45002004	      9.01244546	      2.64637466	     -0.15938710	      0.87590142	     -0.14240254	    -19.36480866	     -8.44595525	     -4.49031075	    -41.37623621	    -13.43025061	     -3.78100706	      0.00000000	     12.64115608	     13.62215087	      0.40126446	    -21.35079435	      4.75659417	    -12.41080672	      0.00000000	    -26.81524809	    -13.73830321	     -4.78970532
